<svg xmlns="http://www.w3.org/2000/svg" width="780" height="460" viewBox="0 0 780 460">
<defs><style>
.t{font-family:system-ui,-apple-system,Segoe UI,Roboto,sans-serif;fill:#1e293b}
</style></defs>
<rect width="100%" height="100%" fill="#f8fafc"/>
<text class="t" x="390" y="34" text-anchor="middle" font-size="17" font-weight="600">Öğrenci ortalamaları — emine hoca belge</text>
<rect x="76" y="56" width="668" height="316" fill="#ffffff" stroke="#cbd5e1" stroke-width="1"/>
<rect x="78" y="301.8461538461538" width="81" height="70.15384615384616" fill="#93c5fd" stroke="#2563eb" stroke-width="1" rx="2"/>
<rect x="161" y="149.84615384615387" width="81" height="222.15384615384613" fill="#93c5fd" stroke="#2563eb" stroke-width="1" rx="2"/>
<rect x="244" y="68" width="81" height="304" fill="#93c5fd" stroke="#2563eb" stroke-width="1" rx="2"/>
<rect x="327" y="91.38461538461536" width="81" height="280.61538461538464" fill="#93c5fd" stroke="#2563eb" stroke-width="1" rx="2"/>
<rect x="410" y="79.69230769230768" width="81" height="292.3076923076923" fill="#93c5fd" stroke="#2563eb" stroke-width="1" rx="2"/>
<rect x="493" y="231.69230769230768" width="81" height="140.30769230769232" fill="#93c5fd" stroke="#2563eb" stroke-width="1" rx="2"/>
<rect x="576" y="336.9230769230769" width="81" height="35.07692307692308" fill="#93c5fd" stroke="#2563eb" stroke-width="1" rx="2"/>
<rect x="659" y="348.61538461538464" width="81" height="23.384615384615387" fill="#93c5fd" stroke="#2563eb" stroke-width="1" rx="2"/>
<polyline fill="none" stroke="#7c3aed" stroke-width="2.25" opacity="0.88" points="76,344.5938744990016 81.56666666666665,341.9263157957958 87.13333333333334,339.0605468341032 92.69999999999999,335.9888581403819 98.26666666666667,332.70401702225314 103.83333333333331,329.19936830478025 109.4,325.468938735287 114.96666666666665,321.5075441738134 120.53333333333333,317.3108985688998 126.1,312.8757236060487 131.66666666666669,308.19985781134795 137.23333333333332,303.28236379781504 142.8,298.1236322595347 148.36666666666667,292.72548125105595 153.9333333333333,287.091249239167 159.50000000000006,281.22588038328684 165.06666666666666,275.1360004913216 170.63333333333333,268.8299821116799 176.2,262.31799726066197 181.76666666666662,255.61205634868696 187.33333333333337,248.72603195944373 192.9,241.67566625321808 198.46666666666664,234.4785609090387 204.0333333333334,227.1541486890597 209.60000000000002,219.72364590136462 215.16666666666669,212.20998525222254 220.73333333333332,204.63772881330294 226.29999999999995,197.0329610804806 231.86666666666662,189.42316236522143 237.43333333333337,181.83706303324666 243,174.3044793840094 248.56666666666663,166.85613224393668 254.13333333333335,159.52344962166055 259.70000000000005,152.33835503968535 265.26666666666665,145.3330434092287 270.8333333333333,138.5397465484826 276.4,131.99049065460162 281.9666666666666,125.7168482219615 287.53333333333336,119.7496870496224 293.1,114.11891909594732 298.66666666666674,108.85325201498608 304.23333333333335,103.97994624521056 309.8,99.52458051483092 315.3666666666667,95.51082857838054 320.9333333333333,91.96024990641735 326.5,88.89209691480642 332.06666666666666,86.32314114363317 337.6333333333333,84.26752058070127 343.2,82.73661007386289 348.7666666666667,81.73891649392738 354.33333333333337,81.27999999999997 359.9,81.3624224268251 365.46666666666664,81.98572346445388 371.0333333333333,83.14642494012463 376.5999999999999,84.83806314662615 382.1666666666666,87.05124879673343 387.73333333333335,89.77375382564475 393.30000000000007,92.99062391866516 398.86666666666673,96.6843153153601 404.43333333333334,100.83485413934056 410,105.42001622957582 415.56666666666666,110.41552520889184 421.13333333333327,115.7952663216953 426.7,121.53151340882792 432.26666666666665,127.5951662648909 437.8333333333333,133.95599554368377 443.4,140.58289234104217 448.9666666666667,147.44411959102024 454.5333333333333,154.5075624599245 460.09999999999997,161.74097501131953 465.66666666666663,169.11222054124806 471.2333333333333,176.58950314339245 476.8,184.14158825504845 482.3666666666666,191.7380101524633 487.9333333333333,199.34926460381567 493.49999999999994,206.94698514516244 499.0666666666667,214.50410171417747 504.6333333333334,221.99498065354996 510.2,229.39554537564842 515.7666666666667,236.68337725779585 521.3333333333334,243.8377966088007 526.9000000000001,250.83992380810486 532.4666666666667,257.67272096531815 538.0333333333334,264.3210146766916 543.6,270.77150066345087 549.1666666666667,277.01273126255353 554.7333333333333,283.0350869016025 560.3,288.8307328251233 565.8666666666666,294.39356244851183 571.4333333333333,299.71912879851294 577,304.8045655554219 582.5666666666667,309.6484992430808 588.1333333333333,314.25095411934836 593.7,318.61325130359506 599.2666666666667,322.73790364074137 604.8333333333333,326.62850774551913 610.4,330.28963459824337 615.9666666666666,333.72671997684586 621.5333333333334,336.94595591171077 627.0999999999999,339.9541842424494 632.6666666666667,342.75879324162145 638.2333333333332,345.36761815191664 643.8,347.78884636273636 649.3666666666667,350.0309278315344 654.9333333333333,352.1024912366544 660.5000000000001,354.01226623342404 666.0666666666666,355.7690120754708 671.6333333333334,357.38145275986284 677.1999999999998,358.8582187588117 682.7666666666668,360.20779531311183 688.3333333333331,361.43847718381426 693.9,362.55832968923437 699.4666666666667,363.57515579442395 705.0333333333333,364.49646896971245 710.6000000000001,365.3294714936451 716.1666666666666,366.0810378433112 721.7333333333335,366.75770279121593 727.3,367.3656538119571 732.8666666666667,367.9107273934093 738.4333333333334,368.398408845196 744,368.8338352012343"/>
<text class="t" x="410" y="408" text-anchor="middle" font-size="13">Öğrenci ortalaması (not)</text>
<text class="t" x="22" y="214" text-anchor="middle" font-size="12" transform="rotate(-90 22 214)">Öğrenci sayısı (yükseklik)</text>
<text class="t" x="76" y="438" font-size="11" fill="#64748b">Min 25.49 → Max 80.55 · n=117</text>
</svg>