<svg xmlns="http://www.w3.org/2000/svg" width="780" height="460" viewBox="0 0 780 460">
<defs><style>
.t{font-family:system-ui,-apple-system,Segoe UI,Roboto,sans-serif;fill:#1e293b}
</style></defs>
<rect width="100%" height="100%" fill="#f8fafc"/>
<text class="t" x="390" y="34" text-anchor="middle" font-size="17" font-weight="600">Öğrenci ortalamaları — emine hoca belge</text>
<rect x="76" y="56" width="668" height="316" fill="#ffffff" stroke="#cbd5e1" stroke-width="1"/>
<rect x="78" y="220" width="131" height="152" fill="#93c5fd" stroke="#2563eb" stroke-width="1" rx="2"/>
<rect x="211" y="220" width="131" height="152" fill="#93c5fd" stroke="#2563eb" stroke-width="1" rx="2"/>
<rect x="344" y="68" width="131" height="304" fill="#93c5fd" stroke="#2563eb" stroke-width="1" rx="2"/>
<rect x="477" y="220" width="131" height="152" fill="#93c5fd" stroke="#2563eb" stroke-width="1" rx="2"/>
<rect x="610" y="220" width="131" height="152" fill="#93c5fd" stroke="#2563eb" stroke-width="1" rx="2"/>
<polyline fill="none" stroke="#7c3aed" stroke-width="2.25" opacity="0.88" points="76,276.70689509590574 81.56666666666662,272.90396247646134 87.13333333333325,269.02123952303145 92.69999999999987,265.06112999423397 98.26666666666681,261.02629621205824 103.83333333333343,256.9196614239254 109.40000000000006,252.74441132650298 114.96666666666668,248.50399471316223 120.53333333333332,244.20212320989137 126.10000000000025,239.842770067734 131.66666666666686,235.43016798336492 137.2333333333335,230.96880592324683 142.80000000000013,226.46342493092297 148.36666666666676,221.9190129013586 153.93333333333337,217.34079831084628 159.5,212.73424289580305 165.06666666666663,208.10503327879613 170.63333333333327,203.4590715453033 176.19999999999987,198.80246478002644 181.76666666666648,194.1415135769931 187.33333333333314,189.48269954317587 192.89999999999975,184.83267182089958 198.46666666666638,180.1982326598531 204.03333333333362,175.586322075046 209.60000000000025,171.00400163251805 215.16666666666688,166.45843740996187 220.73333333333352,161.95688218466947 226.30000000000013,157.50665690625644 231.86666666666673,153.11513151648336 237.43333333333337,148.78970518310086 243,144.53778601898324 248.5666666666666,140.36677036183852 254.13333333333327,136.2840216934671 259.6999999999999,132.29684928085052 265.26666666666654,128.41248662426153 270.83333333333314,124.63806980007027 276.39999999999975,120.98061578795125 281.96666666666636,117.44700087376151 287.53333333333364,114.04393922042993 293.10000000000025,110.77796169977194 298.66666666666686,107.65539507819227 304.23333333333346,104.68234164878567 309.8000000000001,101.86465940133905 315.36666666666673,99.20794282022928 320.9333333333334,96.71750439816407 326.5,94.39835695115602 332.0666666666666,92.25519681705242 337.63333333333327,90.2923880163874 343.1999999999999,88.51394745028932 348.76666666666654,86.92353120569288 354.33333333333314,85.52442203319083 359.89999999999975,84.31951805754579 365.46666666666636,83.31132277520095 371.03333333333364,82.5019363871051 376.60000000000025,81.89304850885219 382.16666666666686,81.48593229354782 387.73333333333346,81.28143999601946 393.3000000000001,81.27999999999997 398.86666666666673,81.48161532279892 404.4333333333334,81.88586360476768 410,82.49189858361012 415.56666666666666,83.29845304633506 421.1333333333332,84.30384324443821 426.6999999999999,85.50597475078268 432.26666666666654,86.90234972966141 437.83333333333314,88.49007558472181 443.39999999999975,90.26587494284587 448.96666666666636,92.22609692575622 454.53333333333364,94.36672965509416 460.10000000000025,96.68341393102492 465.66666666666686,99.17145801911164 471.23333333333346,101.82585347527032 476.8000000000001,104.64129193413822 482.3666666666668,107.61218278213914 487.93333333333334,110.73267163297294 493.5,113.99665952017733 499.06666666666666,117.3978227188469 504.6333333333332,120.92963310654463 510.1999999999999,124.5853789719122 515.7666666666665,128.35818617848818 521.3333333333331,132.2410395907689 526.8999999999997,136.22680466959613 532.4666666666664,140.308249144517 538.0333333333331,144.47806467183125 543.6000000000003,148.72888838859214 549.1666666666669,153.05332427485394 554.7333333333335,157.4439642389424 560.3000000000002,161.89340884341368 565.8666666666668,166.3942875926869 571.4333333333334,170.93927870700452 577,175.52112831139794 582.5666666666666,180.13266897266638 588.1333333333332,184.76683752198636 593.6999999999998,189.41669210561975 599.2666666666665,194.0754284112472 604.8333333333331,198.7363950226828 610.3999999999997,203.39310786108896 615.9666666666669,208.03926367627378 621.5333333333336,212.66875255717096 627.1000000000003,217.27566943616281 632.6666666666669,221.85432456742717 638.2333333333335,226.39925296500354 643.8000000000002,230.9052227916815 649.3666666666668,235.36724269513044 654.9333333333334,239.78056809286235 660.5,244.14070641262958 666.0666666666666,248.44342129967674 671.6333333333332,252.68473580686728 677.1999999999998,256.8609345880743 682.7666666666665,260.96856511933163 688.3333333333331,265.0044379760818 693.8999999999997,268.96562619840614 699.4666666666664,272.84946377937365 705.0333333333336,276.6535433145883 710.6000000000003,280.3757128536395 716.1666666666669,284.0140719964728 721.7333333333335,287.56696727967136 727.3000000000002,291.03298689931154 732.8666666666668,294.4109548183904 738.4333333333334,297.6999243078503 744,300.89917097094184"/>
<text class="t" x="410" y="408" text-anchor="middle" font-size="13">Öğrenci ortalaması (not)</text>
<text class="t" x="22" y="214" text-anchor="middle" font-size="12" transform="rotate(-90 22 214)">Öğrenci sayısı (yükseklik)</text>
<text class="t" x="76" y="438" font-size="11" fill="#64748b">Min 62.96 → Max 78.43 · n=6</text>
</svg>